<svg viewBox="0 0 367.61 125.14" xmlns="http://www.w3.org/2000/svg"><g fill="#1d1123"><rect height="38.26" rx="5.15" width="10.31" x="41.95" y="34.55"/><rect height="55.09" rx="7.42" width="14.84" x="59.62" y="41.18"/><rect height="55.09" rx="7.42" width="14.84" x="19.75" y="41.18"/></g><rect fill="#e83a3a" height="74.4" rx="7.64" transform="matrix(0 1 -1 0 114.81 20.6)" width="15.29" x="39.46" y="30.51"/><path d="m39.46-4.93h3.34a11.94 11.94 0 0 1 11.95 11.93v65.8a11.94 11.94 0 0 1 -11.95 11.96h-3.34a0 0 0 0 1 0 0v-89.69a0 0 0 0 1 0 0z" fill="#e83a3a" transform="matrix(0 1 -1 0 87.02 -7.19)"/><g fill="#1c1f2d"><path d="m192.18 97.17a6.42 6.42 0 0 1 -12.71 1.31 28.93 28.93 0 0 1 -16.15 5.1c-16 0-28.86-13.54-28.86-29.57 0-16.27 12.83-29.81 28.86-29.81a28.13 28.13 0 0 1 15.92 5v-22.34a6.47 6.47 0 0 1 12.94 0zm-28.86-40a15.39 15.39 0 0 0 -11.16 4.83 17.2 17.2 0 0 0 0 23.76 15.36 15.36 0 0 0 11.16 4.87 15.16 15.16 0 0 0 11.16-4.87 17.2 17.2 0 0 0 0-23.76 15.19 15.19 0 0 0 -11.16-4.86z"/><path d="m215.94 94.91a29.62 29.62 0 0 1 -8.2-20.9 30.66 30.66 0 0 1 8.2-20.79 27.72 27.72 0 0 1 20.42-9 26.27 26.27 0 0 1 19.84 9 29.67 29.67 0 0 1 8.31 20.78c0 8.31-3 15.68-8.31 20.9a26.25 26.25 0 0 1 -19.84 9 27.7 27.7 0 0 1 -20.42-8.99zm4.75-20.91a19.22 19.22 0 0 0 4.31 12.6 16.08 16.08 0 0 0 11.36 4.4 15.55 15.55 0 0 0 10.93-4.39 18.25 18.25 0 0 0 4.63-12.61 17.84 17.84 0 0 0 -4.63-12.35 16.75 16.75 0 0 0 -10.93-4.52 17.24 17.24 0 0 0 -11.36 4.53 18.77 18.77 0 0 0 -4.31 12.34z"/><path d="m273.54 118.07a6.31 6.31 0 0 1 6.53-6.29v-61a6.49 6.49 0 0 1 6.42-6.53 6.34 6.34 0 0 1 6.41 6.53v61.05a12.85 12.85 0 0 1 -12.83 12.83 6.3 6.3 0 0 1 -6.53-6.59zm6.65-88.6v-2.38a6.44 6.44 0 0 1 6.53-6.53 6.34 6.34 0 0 1 6.42 6.53v2.38a6.57 6.57 0 0 1 -6.42 6.53 6.67 6.67 0 0 1 -6.53-6.53z"/><path d="m316.77 94.91a29.66 29.66 0 0 1 -8.19-20.91 30.7 30.7 0 0 1 8.19-20.79 27.76 27.76 0 0 1 20.43-9 26.27 26.27 0 0 1 19.84 9 29.71 29.71 0 0 1 8.31 20.79c0 8.31-3 15.68-8.31 20.9a26.25 26.25 0 0 1 -19.84 9 27.73 27.73 0 0 1 -20.43-8.99zm4.75-20.91a19.22 19.22 0 0 0 4.28 12.6 16.08 16.08 0 0 0 11.4 4.4 15.55 15.55 0 0 0 10.93-4.39 18.25 18.25 0 0 0 4.63-12.61 17.84 17.84 0 0 0 -4.63-12.35 16.75 16.75 0 0 0 -10.93-4.52 17.24 17.24 0 0 0 -11.4 4.52 18.78 18.78 0 0 0 -4.28 12.35z"/></g></svg>