<svg id="Layer_1" data-name="Layer 1" xmlns="http://www.w3.org/2000/svg" viewBox="0 0 344.76 109.07"><defs><style>.cls-1{fill:#fff;}</style></defs><title>Untitled-1</title><path class="cls-1" d="M544.46,253.12h-5v20.17h4c3.85,0,6.19-1.69,6.19-6.94v-6.47C549.71,255.18,548.12,253.12,544.46,253.12Z" transform="translate(-239.57 -221)"/><path class="cls-1" d="M239.57,221V330.07H584.33V221H239.57Zm195,10.26h9v9h-9v-9Zm-14.26,0h9v9h-9v-9ZM278.11,310.16c-10.13,0-15.39-6-15.39-16.51v-4h9.76v4.69c0,4.69,2.06,6.38,5.35,6.38s5.35-1.69,5.35-6.38c0-13.51-20.17-16-20.17-34.81C263,249,268.17,243,278.2,243s15.2,6,15.2,16.51v2.06h-9.76v-2.72c0-4.69-1.88-6.47-5.16-6.47s-5.16,1.78-5.16,6.47c0,13.51,20.17,16,20.17,34.81C293.5,304.16,288.24,310.16,278.11,310.16Zm53.57-44.29h-9.76v-7c0-4.69-2.06-6.47-5.35-6.47s-5.35,1.78-5.35,6.47v35.47c0,4.69,2.06,6.38,5.35,6.38s5.35-1.69,5.35-6.38v-9.38h9.76v8.73c0,10.51-5.25,16.51-15.39,16.51s-15.39-6-15.39-16.51V259.5c0-10.51,5.25-16.51,15.39-16.51s15.39,6,15.39,16.51v6.38Zm41.19,43.54H362.36V281.27H350.63v28.15H340.31V243.74h10.32v28.15h11.73V243.74h10.51v65.68Zm37.15,0h-27.3V243.74H393V300h17v9.38Zm37.15-15.67c0,10.51-5.25,16.51-15.39,16.51s-15.39-6-15.39-16.51v-50h10.32V294.4c0,4.69,2.06,6.38,5.35,6.38s5.35-1.69,5.35-6.38V243.74h9.76v50Zm38.28-40.63H474.66v56.3H464.34v-56.3H453.55v-9.38h31.9v9.38Zm35,0H502.61v18.3h14.17v9.38H502.61V300h17.83v9.38H492.29V243.74h28.15v9.38Zm30.3,56.3c-0.56-1.69-.94-2.72-0.94-8.07V291c0-6.1-2.06-8.35-6.75-8.35h-3.57v26.74H529.16V243.74h15.58c10.7,0,15.29,5,15.29,15.11V264c0,6.76-2.16,11.17-6.76,13.32,5.16,2.16,6.85,7.13,6.85,14v10.13c0,3.19.09,5.54,1.13,8H550.74Z" transform="translate(-239.57 -221)"/></svg>