<svg xmlns="http://www.w3.org/2000/svg" viewBox="0 0 344.76 109.07"><title>logo</title><g id="Lag_2" data-name="Lag 2"><g id="Lag_1-2" data-name="Lag 1"><path d="M304.89,32.12h-5V52.29h4c3.85,0,6.19-1.69,6.19-6.94V38.88C310.14,34.18,308.55,32.12,304.89,32.12Z"/><path d="M0,0V109.07H344.76V0ZM195,10.26h9v9h-9Zm-14.26,0h9v9h-9ZM38.54,89.16c-10.13,0-15.39-6-15.39-16.51v-4h9.76v4.69c0,4.69,2.06,6.38,5.35,6.38s5.35-1.69,5.35-6.38c0-13.51-20.17-16-20.17-34.81C23.43,28,28.6,22,38.63,22s15.2,6,15.2,16.51v2.06H44.07V37.85c0-4.69-1.88-6.47-5.16-6.47s-5.16,1.78-5.16,6.47c0,13.51,20.17,16,20.17,34.81C53.93,83.16,48.67,89.16,38.54,89.16ZM92.11,44.87H82.35v-7c0-4.69-2.06-6.47-5.35-6.47s-5.35,1.78-5.35,6.47V73.34c0,4.69,2.06,6.38,5.35,6.38s5.35-1.69,5.35-6.38V64h9.76v8.73c0,10.51-5.25,16.51-15.39,16.51s-15.39-6-15.39-16.51V38.5C61.33,28,66.58,22,76.72,22S92.11,28,92.11,38.5v6.38ZM133.3,88.41H122.79V60.27H111.06V88.42H100.74V22.74h10.32V50.89h11.73V22.74H133.3V88.42Zm37.15,0h-27.3V22.74h10.28V79h17v9.38ZM207.6,72.74c0,10.51-5.25,16.51-15.39,16.51s-15.39-6-15.39-16.51v-50h10.32V73.4c0,4.69,2.06,6.38,5.35,6.38s5.35-1.69,5.35-6.38V22.74h9.76Zm38.28-40.63H235.09v56.3H224.77V32.11H214V22.73h31.9v9.38Zm35,0H263v18.3h14.17v9.38H263V79h17.83v9.38H252.72V22.74h28.15v9.38Zm30.3,56.3c-.56-1.69-.94-2.72-.94-8.07V70c0-6.1-2.06-8.35-6.75-8.35h-3.57V88.39H289.59V22.74h15.58c10.7,0,15.29,5,15.29,15.11V43c0,6.76-2.16,11.17-6.76,13.32,5.16,2.16,6.85,7.13,6.85,14V80.45c0,3.19.09,5.54,1.13,8H311.17Z"/></g></g></svg>